<svg xmlns="http://www.w3.org/2000/svg" viewBox="0 0 64 64" role="img" aria-label="Loxis gestion locative">
  <rect width="64" height="64" rx="14" fill="#0f172a"/>
  <path d="M12 31 32 14l20 17v19a4 4 0 0 1-4 4H16a4 4 0 0 1-4-4z" fill="#1d4ed8"/>
  <path d="M24 54V37a3 3 0 0 1 3-3h10a3 3 0 0 1 3 3v17" fill="#e2e8f0"/>
  <circle cx="47" cy="44" r="5" fill="#f59e0b"/>
  <rect x="50" y="42.8" width="10" height="2.4" rx="1.2" fill="#f59e0b"/>
  <rect x="56" y="41.8" width="2.2" height="1.6" rx="0.8" fill="#0f172a"/>
  <rect x="58.8" y="41.8" width="1.4" height="1.6" rx="0.7" fill="#0f172a"/>
</svg>
